<?xml version="1.0" encoding="UTF-8"?>
<svg width="752pt" height="752pt" version="1.1" viewBox="0 0 752 752" xmlns="http://www.w3.org/2000/svg">
 <g fill="#fff">
  <path d="m286.02 281.29h52.094v-28.414h-52.094c-13.816 0-27.066 5.4883-36.836 15.258-9.7695 9.7695-15.258 23.02-15.258 36.836v194.97c-0.058593 7.3828 2.8477 14.484 8.0625 19.715 5.2109 5.2266 12.305 8.1484 19.691 8.1133 7.3828-0.039063 14.445-3.0352 19.605-8.3164l61.566-61.566 61.566 61.566c5.1602 5.2812 12.223 8.2773 19.605 8.3164 7.3828 0.035156 14.477-2.8867 19.691-8.1133 5.2148-5.2305 8.1172-12.332 8.0586-19.715v-104.99h-28.414v103.05l-80.508-80.508-80.508 80.508v-193.03c0-6.2812 2.4922-12.305 6.9336-16.746 4.4414-4.4375 10.465-6.9336 16.742-6.9336z"/>
  <path d="m518.41 272.14c0.003906-11.793-4.3672-23.168-12.262-31.93-7.8945-8.7617-18.754-14.285-30.484-15.508-11.727-1.2227-23.496 1.9453-33.027 8.8867-13.047-9.6953-30.133-12.082-45.336-6.3242-15.203 5.7539-26.43 18.859-29.781 34.766-3.3516 15.91 1.6328 32.43 13.223 43.828l61.801 61.566 61.566-61.566c9.0977-8.8672 14.25-21.016 14.301-33.719zm-34.051 13.875-41.723 41.723-41.723-41.723c-4.9141-4.8555-6.8633-11.965-5.1172-18.648 1.75-6.6836 6.9297-11.93 13.594-13.758 6.6602-1.8281 13.793 0.035157 18.707 4.8945l14.445 14.207 14.207-14.207c4.9141-4.9336 12.09-6.8672 18.816-5.0781 6.7305 1.7891 11.992 7.0352 13.805 13.758 1.8164 6.7227-0.09375 13.902-5.0117 18.832z"/>
 </g>
</svg>
